<mxfile host="app.diagrams.net" agent="Mozilla/5.0 (X11; Ubuntu; Linux x86_64; rv:130.0) Gecko/20100101 Firefox/130.0" version="24.8.4">
  <diagram name="Page-1" id="0783ab3e-0a74-02c8-0abd-f7b4e66b4bec">
    <mxGraphModel dx="3718" dy="1590" grid="1" gridSize="10" guides="1" tooltips="1" connect="1" arrows="1" fold="1" page="1" pageScale="1" pageWidth="850" pageHeight="1100" background="none" math="0" shadow="0">
      <root>
        <mxCell id="0" />
        <mxCell id="1" parent="0" />
        <mxCell id="1c1d494c118603dd-1" value="diagrama de atividades para agendar um horário" style="swimlane;html=1;childLayout=stackLayout;startSize=20;rounded=0;shadow=0;comic=0;labelBackgroundColor=none;strokeWidth=1;fontFamily=Verdana;fontSize=12;align=center;" parent="1" vertex="1">
          <mxGeometry x="-70" y="20" width="940" height="1600" as="geometry" />
        </mxCell>
        <mxCell id="1c1d494c118603dd-28" style="edgeStyle=orthogonalEdgeStyle;rounded=0;html=1;labelBackgroundColor=none;startArrow=none;startFill=0;startSize=5;endArrow=classicThin;endFill=1;endSize=5;jettySize=auto;orthogonalLoop=1;strokeWidth=1;fontFamily=Verdana;fontSize=12;entryX=0.5;entryY=0;entryDx=0;entryDy=0;" parent="1c1d494c118603dd-1" source="60571a20871a0731-8" target="1c1d494c118603dd-6" edge="1">
          <mxGeometry relative="1" as="geometry">
            <Array as="points">
              <mxPoint x="237" y="145" />
            </Array>
            <mxPoint x="210" y="160" as="targetPoint" />
          </mxGeometry>
        </mxCell>
        <mxCell id="4xZG7v5aqBdaZ4ZW4Jnx-18" value="" style="edgeStyle=orthogonalEdgeStyle;rounded=0;orthogonalLoop=1;jettySize=auto;html=1;" edge="1" parent="1c1d494c118603dd-1" source="4xZG7v5aqBdaZ4ZW4Jnx-13" target="4xZG7v5aqBdaZ4ZW4Jnx-17">
          <mxGeometry relative="1" as="geometry" />
        </mxCell>
        <mxCell id="4xZG7v5aqBdaZ4ZW4Jnx-23" value="" style="edgeStyle=orthogonalEdgeStyle;rounded=0;orthogonalLoop=1;jettySize=auto;html=1;exitX=0;exitY=0.5;exitDx=0;exitDy=0;entryX=0;entryY=0.5;entryDx=0;entryDy=0;" edge="1" parent="1c1d494c118603dd-1" source="4xZG7v5aqBdaZ4ZW4Jnx-19" target="60571a20871a0731-5">
          <mxGeometry relative="1" as="geometry">
            <mxPoint x="80" y="790" as="targetPoint" />
          </mxGeometry>
        </mxCell>
        <mxCell id="4xZG7v5aqBdaZ4ZW4Jnx-24" value="nâo" style="edgeLabel;html=1;align=center;verticalAlign=middle;resizable=0;points=[];" vertex="1" connectable="0" parent="4xZG7v5aqBdaZ4ZW4Jnx-23">
          <mxGeometry x="-0.6786" relative="1" as="geometry">
            <mxPoint as="offset" />
          </mxGeometry>
        </mxCell>
        <mxCell id="1c1d494c118603dd-3" value="Cliente" style="swimlane;html=1;startSize=20;arcSize=15;rounded=0;" parent="1c1d494c118603dd-1" vertex="1">
          <mxGeometry y="20" width="477" height="1580" as="geometry" />
        </mxCell>
        <mxCell id="4xZG7v5aqBdaZ4ZW4Jnx-3" value="" style="edgeStyle=orthogonalEdgeStyle;rounded=0;orthogonalLoop=1;jettySize=auto;html=1;" edge="1" parent="1c1d494c118603dd-3" source="1c1d494c118603dd-6" target="4xZG7v5aqBdaZ4ZW4Jnx-2">
          <mxGeometry relative="1" as="geometry" />
        </mxCell>
        <mxCell id="1c1d494c118603dd-6" value="selecionar procedimentos" style="rounded=1;whiteSpace=wrap;html=1;shadow=0;comic=0;labelBackgroundColor=none;strokeWidth=1;fontFamily=Verdana;fontSize=12;align=center;arcSize=50;" parent="1c1d494c118603dd-3" vertex="1">
          <mxGeometry x="184" y="160" width="106" height="40" as="geometry" />
        </mxCell>
        <mxCell id="4xZG7v5aqBdaZ4ZW4Jnx-7" value="" style="edgeStyle=orthogonalEdgeStyle;rounded=0;orthogonalLoop=1;jettySize=auto;html=1;" edge="1" parent="1c1d494c118603dd-3" source="4xZG7v5aqBdaZ4ZW4Jnx-2" target="4xZG7v5aqBdaZ4ZW4Jnx-6">
          <mxGeometry relative="1" as="geometry" />
        </mxCell>
        <mxCell id="4xZG7v5aqBdaZ4ZW4Jnx-10" value="sim" style="edgeLabel;html=1;align=center;verticalAlign=middle;resizable=0;points=[];" vertex="1" connectable="0" parent="4xZG7v5aqBdaZ4ZW4Jnx-7">
          <mxGeometry x="-0.4965" y="-1" relative="1" as="geometry">
            <mxPoint as="offset" />
          </mxGeometry>
        </mxCell>
        <mxCell id="4xZG7v5aqBdaZ4ZW4Jnx-12" value="&lt;font style=&quot;font-size: 15px;&quot;&gt;sim&lt;/font&gt;" style="edgeLabel;html=1;align=center;verticalAlign=middle;resizable=0;points=[];" vertex="1" connectable="0" parent="4xZG7v5aqBdaZ4ZW4Jnx-7">
          <mxGeometry x="-0.4685" y="-1" relative="1" as="geometry">
            <mxPoint as="offset" />
          </mxGeometry>
        </mxCell>
        <mxCell id="4xZG7v5aqBdaZ4ZW4Jnx-9" value="" style="edgeStyle=orthogonalEdgeStyle;rounded=0;orthogonalLoop=1;jettySize=auto;html=1;" edge="1" parent="1c1d494c118603dd-3" source="4xZG7v5aqBdaZ4ZW4Jnx-2" target="4xZG7v5aqBdaZ4ZW4Jnx-8">
          <mxGeometry relative="1" as="geometry" />
        </mxCell>
        <mxCell id="4xZG7v5aqBdaZ4ZW4Jnx-11" value="&lt;font style=&quot;font-size: 15px;&quot;&gt;não&lt;/font&gt;" style="edgeLabel;html=1;align=center;verticalAlign=middle;resizable=0;points=[];" vertex="1" connectable="0" parent="4xZG7v5aqBdaZ4ZW4Jnx-9">
          <mxGeometry x="-0.4422" y="2" relative="1" as="geometry">
            <mxPoint as="offset" />
          </mxGeometry>
        </mxCell>
        <mxCell id="4xZG7v5aqBdaZ4ZW4Jnx-2" value="tem horario compativel com o tempo" style="rhombus;whiteSpace=wrap;html=1;" vertex="1" parent="1c1d494c118603dd-3">
          <mxGeometry x="177" y="260" width="120" height="100" as="geometry" />
        </mxCell>
        <mxCell id="4xZG7v5aqBdaZ4ZW4Jnx-14" value="" style="edgeStyle=orthogonalEdgeStyle;rounded=0;orthogonalLoop=1;jettySize=auto;html=1;" edge="1" parent="1c1d494c118603dd-3" source="4xZG7v5aqBdaZ4ZW4Jnx-6" target="4xZG7v5aqBdaZ4ZW4Jnx-13">
          <mxGeometry relative="1" as="geometry" />
        </mxCell>
        <mxCell id="4xZG7v5aqBdaZ4ZW4Jnx-6" value="escolha de dia e horários disponíveis" style="rounded=1;whiteSpace=wrap;html=1;" vertex="1" parent="1c1d494c118603dd-3">
          <mxGeometry x="310" y="380" width="120" height="60" as="geometry" />
        </mxCell>
        <mxCell id="4xZG7v5aqBdaZ4ZW4Jnx-20" style="edgeStyle=orthogonalEdgeStyle;rounded=0;orthogonalLoop=1;jettySize=auto;html=1;exitX=0.5;exitY=1;exitDx=0;exitDy=0;entryX=0.5;entryY=0;entryDx=0;entryDy=0;" edge="1" parent="1c1d494c118603dd-3" source="4xZG7v5aqBdaZ4ZW4Jnx-8" target="4xZG7v5aqBdaZ4ZW4Jnx-19">
          <mxGeometry relative="1" as="geometry" />
        </mxCell>
        <mxCell id="4xZG7v5aqBdaZ4ZW4Jnx-8" value="cliente é adicionado à lista de espera" style="rounded=1;whiteSpace=wrap;html=1;arcSize=15;" vertex="1" parent="1c1d494c118603dd-3">
          <mxGeometry x="40" y="380" width="120" height="60" as="geometry" />
        </mxCell>
        <mxCell id="4xZG7v5aqBdaZ4ZW4Jnx-13" value="procedimentos agendados" style="rounded=1;whiteSpace=wrap;html=1;" vertex="1" parent="1c1d494c118603dd-3">
          <mxGeometry x="310" y="520" width="120" height="60" as="geometry" />
        </mxCell>
        <mxCell id="4xZG7v5aqBdaZ4ZW4Jnx-33" style="edgeStyle=orthogonalEdgeStyle;rounded=0;orthogonalLoop=1;jettySize=auto;html=1;exitX=1;exitY=0.5;exitDx=0;exitDy=0;entryX=0.5;entryY=0;entryDx=0;entryDy=0;" edge="1" parent="1c1d494c118603dd-3" source="4xZG7v5aqBdaZ4ZW4Jnx-19" target="4xZG7v5aqBdaZ4ZW4Jnx-36">
          <mxGeometry relative="1" as="geometry">
            <mxPoint x="190" y="790" as="targetPoint" />
          </mxGeometry>
        </mxCell>
        <mxCell id="4xZG7v5aqBdaZ4ZW4Jnx-34" value="sim" style="edgeLabel;html=1;align=center;verticalAlign=middle;resizable=0;points=[];" vertex="1" connectable="0" parent="4xZG7v5aqBdaZ4ZW4Jnx-33">
          <mxGeometry x="-0.473" y="-1" relative="1" as="geometry">
            <mxPoint as="offset" />
          </mxGeometry>
        </mxCell>
        <mxCell id="4xZG7v5aqBdaZ4ZW4Jnx-19" value="teve desistencia de horário?" style="rhombus;whiteSpace=wrap;html=1;" vertex="1" parent="1c1d494c118603dd-3">
          <mxGeometry x="40" y="630" width="120" height="100" as="geometry" />
        </mxCell>
        <mxCell id="4xZG7v5aqBdaZ4ZW4Jnx-38" style="edgeStyle=orthogonalEdgeStyle;rounded=0;orthogonalLoop=1;jettySize=auto;html=1;exitX=0.5;exitY=1;exitDx=0;exitDy=0;entryX=0.5;entryY=0;entryDx=0;entryDy=0;" edge="1" parent="1c1d494c118603dd-3" source="4xZG7v5aqBdaZ4ZW4Jnx-36" target="4xZG7v5aqBdaZ4ZW4Jnx-37">
          <mxGeometry relative="1" as="geometry" />
        </mxCell>
        <mxCell id="4xZG7v5aqBdaZ4ZW4Jnx-36" value="notificação de horario vago via SMS" style="rounded=1;whiteSpace=wrap;html=1;" vertex="1" parent="1c1d494c118603dd-3">
          <mxGeometry x="75" y="790" width="120" height="60" as="geometry" />
        </mxCell>
        <mxCell id="4xZG7v5aqBdaZ4ZW4Jnx-39" style="edgeStyle=orthogonalEdgeStyle;rounded=0;orthogonalLoop=1;jettySize=auto;html=1;exitX=1;exitY=0.5;exitDx=0;exitDy=0;entryX=0;entryY=0.5;entryDx=0;entryDy=0;" edge="1" parent="1c1d494c118603dd-3" source="4xZG7v5aqBdaZ4ZW4Jnx-37" target="4xZG7v5aqBdaZ4ZW4Jnx-13">
          <mxGeometry relative="1" as="geometry" />
        </mxCell>
        <mxCell id="4xZG7v5aqBdaZ4ZW4Jnx-40" value="sim" style="edgeLabel;html=1;align=center;verticalAlign=middle;resizable=0;points=[];" vertex="1" connectable="0" parent="4xZG7v5aqBdaZ4ZW4Jnx-39">
          <mxGeometry x="-0.5369" y="-3" relative="1" as="geometry">
            <mxPoint as="offset" />
          </mxGeometry>
        </mxCell>
        <mxCell id="4xZG7v5aqBdaZ4ZW4Jnx-44" style="edgeStyle=orthogonalEdgeStyle;rounded=0;orthogonalLoop=1;jettySize=auto;html=1;exitX=0;exitY=0.5;exitDx=0;exitDy=0;" edge="1" parent="1c1d494c118603dd-3" source="4xZG7v5aqBdaZ4ZW4Jnx-37">
          <mxGeometry relative="1" as="geometry">
            <mxPoint x="20" y="960.3333333333335" as="targetPoint" />
          </mxGeometry>
        </mxCell>
        <mxCell id="4xZG7v5aqBdaZ4ZW4Jnx-45" value="não" style="edgeLabel;html=1;align=center;verticalAlign=middle;resizable=0;points=[];" vertex="1" connectable="0" parent="4xZG7v5aqBdaZ4ZW4Jnx-44">
          <mxGeometry x="0.0152" relative="1" as="geometry">
            <mxPoint as="offset" />
          </mxGeometry>
        </mxCell>
        <mxCell id="4xZG7v5aqBdaZ4ZW4Jnx-37" value="confirmar horário?" style="rhombus;whiteSpace=wrap;html=1;" vertex="1" parent="1c1d494c118603dd-3">
          <mxGeometry x="75" y="910" width="120" height="100" as="geometry" />
        </mxCell>
        <mxCell id="4xZG7v5aqBdaZ4ZW4Jnx-49" value="" style="edgeStyle=orthogonalEdgeStyle;rounded=0;orthogonalLoop=1;jettySize=auto;html=1;" edge="1" parent="1c1d494c118603dd-3" source="4xZG7v5aqBdaZ4ZW4Jnx-46" target="4xZG7v5aqBdaZ4ZW4Jnx-51">
          <mxGeometry relative="1" as="geometry">
            <mxPoint x="370" y="910" as="targetPoint" />
          </mxGeometry>
        </mxCell>
        <mxCell id="4xZG7v5aqBdaZ4ZW4Jnx-46" value="lembrete no dia agendado sobre o procedimento" style="rounded=1;whiteSpace=wrap;html=1;" vertex="1" parent="1c1d494c118603dd-3">
          <mxGeometry x="310" y="690" width="120" height="60" as="geometry" />
        </mxCell>
        <mxCell id="4xZG7v5aqBdaZ4ZW4Jnx-63" style="edgeStyle=orthogonalEdgeStyle;rounded=0;orthogonalLoop=1;jettySize=auto;html=1;exitX=0;exitY=0.5;exitDx=0;exitDy=0;entryX=0.5;entryY=0;entryDx=0;entryDy=0;" edge="1" parent="1c1d494c118603dd-3" source="4xZG7v5aqBdaZ4ZW4Jnx-51" target="4xZG7v5aqBdaZ4ZW4Jnx-62">
          <mxGeometry relative="1" as="geometry">
            <Array as="points">
              <mxPoint x="310" y="1070" />
              <mxPoint x="160" y="1070" />
            </Array>
          </mxGeometry>
        </mxCell>
        <mxCell id="4xZG7v5aqBdaZ4ZW4Jnx-64" value="não" style="edgeLabel;html=1;align=center;verticalAlign=middle;resizable=0;points=[];" vertex="1" connectable="0" parent="4xZG7v5aqBdaZ4ZW4Jnx-63">
          <mxGeometry x="-0.4111" relative="1" as="geometry">
            <mxPoint as="offset" />
          </mxGeometry>
        </mxCell>
        <mxCell id="4xZG7v5aqBdaZ4ZW4Jnx-66" style="edgeStyle=orthogonalEdgeStyle;rounded=0;orthogonalLoop=1;jettySize=auto;html=1;exitX=1;exitY=0.5;exitDx=0;exitDy=0;" edge="1" parent="1c1d494c118603dd-3" source="4xZG7v5aqBdaZ4ZW4Jnx-51" target="4xZG7v5aqBdaZ4ZW4Jnx-65">
          <mxGeometry relative="1" as="geometry" />
        </mxCell>
        <mxCell id="4xZG7v5aqBdaZ4ZW4Jnx-67" value="sim" style="edgeLabel;html=1;align=center;verticalAlign=middle;resizable=0;points=[];" vertex="1" connectable="0" parent="4xZG7v5aqBdaZ4ZW4Jnx-66">
          <mxGeometry x="0.1398" relative="1" as="geometry">
            <mxPoint as="offset" />
          </mxGeometry>
        </mxCell>
        <mxCell id="4xZG7v5aqBdaZ4ZW4Jnx-51" value="confirmar horário?" style="rhombus;whiteSpace=wrap;html=1;" vertex="1" parent="1c1d494c118603dd-3">
          <mxGeometry x="310" y="860" width="120" height="100" as="geometry" />
        </mxCell>
        <mxCell id="4xZG7v5aqBdaZ4ZW4Jnx-62" value="horário desmarcado" style="rounded=1;whiteSpace=wrap;html=1;" vertex="1" parent="1c1d494c118603dd-3">
          <mxGeometry x="100" y="1130" width="120" height="60" as="geometry" />
        </mxCell>
        <mxCell id="4xZG7v5aqBdaZ4ZW4Jnx-65" value="horário confirmado" style="rounded=1;whiteSpace=wrap;html=1;" vertex="1" parent="1c1d494c118603dd-3">
          <mxGeometry x="320" y="1130" width="120" height="60" as="geometry" />
        </mxCell>
        <mxCell id="1c1d494c118603dd-4" value="Funcionário" style="swimlane;html=1;startSize=20;" parent="1c1d494c118603dd-1" vertex="1">
          <mxGeometry x="477" y="20" width="463" height="1580" as="geometry" />
        </mxCell>
        <mxCell id="1c1d494c118603dd-27" style="edgeStyle=orthogonalEdgeStyle;rounded=0;html=1;labelBackgroundColor=none;startArrow=none;startFill=0;startSize=5;endArrow=classicThin;endFill=1;endSize=5;jettySize=auto;orthogonalLoop=1;strokeWidth=1;fontFamily=Verdana;fontSize=12" parent="1c1d494c118603dd-4" source="60571a20871a0731-4" target="60571a20871a0731-8" edge="1">
          <mxGeometry relative="1" as="geometry" />
        </mxCell>
        <mxCell id="60571a20871a0731-4" value="" style="ellipse;whiteSpace=wrap;html=1;rounded=0;shadow=0;comic=0;labelBackgroundColor=none;strokeWidth=1;fillColor=#000000;fontFamily=Verdana;fontSize=12;align=center;" parent="1c1d494c118603dd-4" vertex="1">
          <mxGeometry x="215" y="30" width="40" height="40" as="geometry" />
        </mxCell>
        <mxCell id="60571a20871a0731-8" value="cadastrar horários/procedimentos" style="rounded=1;whiteSpace=wrap;html=1;shadow=0;comic=0;labelBackgroundColor=none;strokeWidth=1;fontFamily=Verdana;fontSize=12;align=center;arcSize=50;" parent="1c1d494c118603dd-4" vertex="1">
          <mxGeometry x="170" y="110" width="130" height="50" as="geometry" />
        </mxCell>
        <mxCell id="60571a20871a0731-5" value="" style="shape=mxgraph.bpmn.shape;html=1;verticalLabelPosition=bottom;labelBackgroundColor=#ffffff;verticalAlign=top;perimeter=ellipsePerimeter;outline=end;symbol=terminate;rounded=0;shadow=0;comic=0;strokeWidth=1;fontFamily=Verdana;fontSize=12;align=center;" parent="1c1d494c118603dd-4" vertex="1">
          <mxGeometry x="215" y="1520" width="40" height="40" as="geometry" />
        </mxCell>
        <mxCell id="4xZG7v5aqBdaZ4ZW4Jnx-17" value="notificação de agendamento via SMS" style="rounded=1;whiteSpace=wrap;html=1;" vertex="1" parent="1c1d494c118603dd-4">
          <mxGeometry x="113" y="520" width="120" height="60" as="geometry" />
        </mxCell>
        <mxCell id="4xZG7v5aqBdaZ4ZW4Jnx-71" value="" style="edgeStyle=orthogonalEdgeStyle;rounded=0;orthogonalLoop=1;jettySize=auto;html=1;" edge="1" parent="1c1d494c118603dd-4" source="4xZG7v5aqBdaZ4ZW4Jnx-68" target="4xZG7v5aqBdaZ4ZW4Jnx-70">
          <mxGeometry relative="1" as="geometry" />
        </mxCell>
        <mxCell id="4xZG7v5aqBdaZ4ZW4Jnx-68" value="realização do procedimento" style="rounded=1;whiteSpace=wrap;html=1;" vertex="1" parent="1c1d494c118603dd-4">
          <mxGeometry x="175" y="1210" width="120" height="60" as="geometry" />
        </mxCell>
        <mxCell id="4xZG7v5aqBdaZ4ZW4Jnx-72" style="edgeStyle=orthogonalEdgeStyle;rounded=0;orthogonalLoop=1;jettySize=auto;html=1;exitX=0.5;exitY=1;exitDx=0;exitDy=0;entryX=0.5;entryY=0;entryDx=0;entryDy=0;" edge="1" parent="1c1d494c118603dd-4" source="4xZG7v5aqBdaZ4ZW4Jnx-70" target="60571a20871a0731-5">
          <mxGeometry relative="1" as="geometry" />
        </mxCell>
        <mxCell id="4xZG7v5aqBdaZ4ZW4Jnx-70" value="procedimento finalizado" style="rounded=1;whiteSpace=wrap;html=1;" vertex="1" parent="1c1d494c118603dd-4">
          <mxGeometry x="175" y="1350" width="120" height="60" as="geometry" />
        </mxCell>
        <mxCell id="4xZG7v5aqBdaZ4ZW4Jnx-47" value="" style="edgeStyle=orthogonalEdgeStyle;rounded=0;orthogonalLoop=1;jettySize=auto;html=1;" edge="1" parent="1c1d494c118603dd-1" source="4xZG7v5aqBdaZ4ZW4Jnx-17" target="4xZG7v5aqBdaZ4ZW4Jnx-46">
          <mxGeometry relative="1" as="geometry">
            <Array as="points">
              <mxPoint x="650" y="660" />
              <mxPoint x="370" y="660" />
            </Array>
          </mxGeometry>
        </mxCell>
        <mxCell id="4xZG7v5aqBdaZ4ZW4Jnx-69" value="" style="edgeStyle=orthogonalEdgeStyle;rounded=0;orthogonalLoop=1;jettySize=auto;html=1;" edge="1" parent="1c1d494c118603dd-1" source="4xZG7v5aqBdaZ4ZW4Jnx-65" target="4xZG7v5aqBdaZ4ZW4Jnx-68">
          <mxGeometry relative="1" as="geometry" />
        </mxCell>
      </root>
    </mxGraphModel>
  </diagram>
</mxfile>
